<svg width="128" height="128" viewBox="0 0 128 128" fill="none" xmlns="http://www.w3.org/2000/svg">
  <rect width="128" height="128" rx="32" fill="#09090B"/>
  <rect x="20" y="20" width="88" height="88" rx="24" fill="#18181B" stroke="#27272A"/>
  <path d="M42 83V45H58C69.0457 45 76 50.9969 76 60C76 68.9272 69.0457 75 58 75H50V83H42ZM50 68H57.4C63.2522 68 67 64.8924 67 60C67 55.0316 63.2522 52 57.4 52H50V68Z" fill="#FAFAFA"/>
  <path d="M79 45H87V63C87 66.866 89.4622 69 93 69C96.5378 69 99 66.866 99 63V45H107V63.8C107 72.1979 101.275 77 93 77C84.725 77 79 72.1979 79 63.8V45Z" fill="#FAFAFA"/>
</svg>
